<svg width="32" height="32" viewBox="0 0 32 32" fill="none" xmlns="http://www.w3.org/2000/svg">
<g id="Frame 8">
<rect width="32" height="32" rx="8" fill="black"/>
<path id="Subtract" d="M16.812 9.31238C16.812 8.58757 16.2495 8 15.5556 8C14.8617 8 14.2992 8.58757 14.2992 9.31238V13.6369H10.171C9.47708 13.6369 8.91457 14.2245 8.91457 14.9493C8.91457 15.6741 9.47708 16.2616 10.171 16.2616H14.2992V20.4864H7.47867C6.78477 20.4864 6.22226 21.0739 6.22226 21.7987C6.22226 22.5235 6.78477 23.1111 7.47867 23.1111H23.6325C24.3264 23.1111 24.8889 22.5235 24.8889 21.7987C24.8889 21.0739 24.3264 20.4864 23.6325 20.4864H16.812V16.2616H20.9402C21.6341 16.2616 22.1966 15.6741 22.1966 14.9493C22.1966 14.2245 21.6341 13.6369 20.9402 13.6369H16.812V9.31238Z" fill="white"/>
</g>
</svg>
